<svg width="18" height="15" viewBox="0 0 18 15" fill="none" xmlns="http://www.w3.org/2000/svg">
<path d="M10.818 -0.000289917V14.9997H1.65133C1.19109 14.9997 0.817993 14.6266 0.817993 14.1664V9.58308C1.96858 9.58308 2.90133 8.65033 2.90133 7.49974C2.90133 6.34916 1.96858 5.41638 0.817993 5.41638V0.833043C0.817993 0.37281 1.19109 -0.000289917 1.65133 -0.000289917H10.818ZM12.4847 -0.000289917H16.6513C17.1116 -0.000289917 17.4847 0.37281 17.4847 0.833043V5.41638C16.3341 5.41638 15.4013 6.34916 15.4013 7.49974C15.4013 8.65033 16.3341 9.58308 17.4847 9.58308V14.1664C17.4847 14.6266 17.1116 14.9997 16.6513 14.9997H12.4847V-0.000289917Z" fill="#4A87F2"/>
</svg>
