<svg width="33" height="31" viewBox="0 0 33 31" fill="none" xmlns="http://www.w3.org/2000/svg">
<path fill-rule="evenodd" clip-rule="evenodd" d="M24.0365 1.39209L28.6193 7.54142C29.5224 8.75324 28.96 10.3889 27.7026 10.913L31.9617 20.6599C32.3763 21.6089 32.0786 22.7185 31.2445 23.3323L25.0678 27.8781C23.5994 28.9588 21.527 27.903 21.5379 26.0799L21.5387 25.9571L11.7399 30.3091C10.7934 30.7294 9.68207 30.4383 9.06325 29.6079L4.48046 23.4586C3.60548 22.2845 4.1062 20.7125 5.28174 20.1391L1.03814 10.4276C0.623484 9.47868 0.92126 8.36909 1.75531 7.75526L7.93201 3.20944C9.40039 2.12876 11.4728 3.18453 11.4619 5.00769L11.4614 5.08716L21.3599 0.690953C22.3064 0.270614 23.4177 0.561731 24.0365 1.39209ZM21.6046 11.082H21.6279L21.6046 14.9581V19.6045C21.6046 19.6804 21.5945 19.7538 21.5755 19.8236L21.5749 19.918H21.5435C21.4198 20.2216 21.1216 20.4356 20.7735 20.4356H12.2455C11.8974 20.4356 11.5993 20.2216 11.4755 19.918H11.3725L11.4144 12.9314V11.0765C11.4144 10.6175 11.7865 10.2454 12.2455 10.2454H20.7735C21.2325 10.2454 21.6046 10.6175 21.6046 11.0765V11.082Z" fill="black"/>
</svg>
