<svg width="20" height="16" viewBox="0 0 20 16" fill="none" xmlns="http://www.w3.org/2000/svg">
<path d="M19.6699 8C19.6699 8.29837 19.5514 8.58452 19.3404 8.79549C19.1294 9.00647 18.8433 9.125 18.5449 9.125H2.04492C1.74655 9.125 1.46041 9.00647 1.24943 8.79549C1.03845 8.58452 0.919922 8.29837 0.919922 8C0.919922 7.70163 1.03845 7.41548 1.24943 7.2045C1.46041 6.99353 1.74655 6.875 2.04492 6.875H18.5449C18.8433 6.875 19.1294 6.99353 19.3404 7.2045C19.5514 7.41548 19.6699 7.70163 19.6699 8ZM2.04492 3.125H18.5449C18.8433 3.125 19.1294 3.00647 19.3404 2.7955C19.5514 2.58452 19.6699 2.29837 19.6699 2C19.6699 1.70163 19.5514 1.41548 19.3404 1.2045C19.1294 0.993526 18.8433 0.875 18.5449 0.875H2.04492C1.74655 0.875 1.46041 0.993526 1.24943 1.2045C1.03845 1.41548 0.919922 1.70163 0.919922 2C0.919922 2.29837 1.03845 2.58452 1.24943 2.7955C1.46041 3.00647 1.74655 3.125 2.04492 3.125ZM18.5449 12.875H2.04492C1.74655 12.875 1.46041 12.9935 1.24943 13.2045C1.03845 13.4155 0.919922 13.7016 0.919922 14C0.919922 14.2984 1.03845 14.5845 1.24943 14.7955C1.46041 15.0065 1.74655 15.125 2.04492 15.125H18.5449C18.8433 15.125 19.1294 15.0065 19.3404 14.7955C19.5514 14.5845 19.6699 14.2984 19.6699 14C19.6699 13.7016 19.5514 13.4155 19.3404 13.2045C19.1294 12.9935 18.8433 12.875 18.5449 12.875Z" fill="black"/>
</svg>
