<svg width="28" height="28" viewBox="0 0 28 28" fill="none" xmlns="http://www.w3.org/2000/svg">
<path d="M14 0.5C11.33 0.5 8.71987 1.29176 6.49981 2.77516C4.27974 4.25856 2.54942 6.36697 1.52763 8.83377C0.505849 11.3006 0.238504 14.015 0.759405 16.6337C1.28031 19.2525 2.56606 21.6579 4.45406 23.5459C6.34207 25.434 8.74754 26.7197 11.3663 27.2406C13.985 27.7615 16.6994 27.4942 19.1662 26.4724C21.633 25.4506 23.7414 23.7203 25.2248 21.5002C26.7082 19.2801 27.5 16.67 27.5 14C27.496 10.4208 26.0724 6.98932 23.5416 4.45844C21.0107 1.92756 17.5792 0.50397 14 0.5ZM14 24.5C11.9233 24.5 9.89324 23.8842 8.16652 22.7304C6.4398 21.5767 5.09399 19.9368 4.29927 18.0182C3.50455 16.0996 3.29662 13.9884 3.70176 11.9516C4.10691 9.91475 5.10693 8.04383 6.57538 6.57538C8.04384 5.10693 9.91476 4.1069 11.9516 3.70175C13.9884 3.29661 16.0996 3.50454 18.0182 4.29926C19.9368 5.09399 21.5767 6.4398 22.7304 8.16651C23.8842 9.89323 24.5 11.9233 24.5 14C24.497 16.7839 23.3898 19.4528 21.4213 21.4213C19.4529 23.3898 16.7839 24.497 14 24.5ZM19.5 10V16C19.5 16.3978 19.342 16.7794 19.0607 17.0607C18.7794 17.342 18.3978 17.5 18 17.5C17.6022 17.5 17.2207 17.342 16.9393 17.0607C16.658 16.7794 16.5 16.3978 16.5 16V13.625L11.0613 19.065C10.7795 19.3468 10.3973 19.5051 9.99876 19.5051C9.60024 19.5051 9.21805 19.3468 8.93626 19.065C8.65446 18.7832 8.49615 18.401 8.49615 18.0025C8.49615 17.604 8.65446 17.2218 8.93626 16.94L14.375 11.5H12C11.6022 11.5 11.2206 11.342 10.9393 11.0607C10.658 10.7794 10.5 10.3978 10.5 10C10.5 9.60218 10.658 9.22064 10.9393 8.93934C11.2206 8.65804 11.6022 8.5 12 8.5H18C18.3978 8.5 18.7794 8.65804 19.0607 8.93934C19.342 9.22064 19.5 9.60218 19.5 10Z" fill="black"/>
</svg>
