<svg width="18" height="18" viewBox="0 0 18 18" fill="none" xmlns="http://www.w3.org/2000/svg">
<path d="M15.75 0.375H2.25C1.75272 0.375 1.27581 0.572544 0.924175 0.924175C0.572544 1.27581 0.375 1.75272 0.375 2.25V15.75C0.375 16.2473 0.572544 16.7242 0.924175 17.0758C1.27581 17.4275 1.75272 17.625 2.25 17.625H15.75C16.2473 17.625 16.7242 17.4275 17.0758 17.0758C17.4275 16.7242 17.625 16.2473 17.625 15.75V2.25C17.625 1.75272 17.4275 1.27581 17.0758 0.924175C16.7242 0.572544 16.2473 0.375 15.75 0.375ZM15.375 2.625V7.875H2.625V2.625H15.375ZM2.625 15.375V10.125H15.375V15.375H2.625Z" fill="#646D80"/>
</svg>
