<svg width="18" height="18" viewBox="0 0 18 18" fill="none" xmlns="http://www.w3.org/2000/svg">
<path d="M6.375 0.375H2.25C1.75272 0.375 1.27581 0.572544 0.924175 0.924175C0.572544 1.27581 0.375 1.75272 0.375 2.25V6.375C0.375 6.87228 0.572544 7.34919 0.924175 7.70083C1.27581 8.05246 1.75272 8.25 2.25 8.25H6.375C6.87228 8.25 7.34919 8.05246 7.70083 7.70083C8.05246 7.34919 8.25 6.87228 8.25 6.375V2.25C8.25 1.75272 8.05246 1.27581 7.70083 0.924175C7.34919 0.572544 6.87228 0.375 6.375 0.375ZM6 6H2.625V2.625H6V6ZM15.75 0.375H11.625C11.1277 0.375 10.6508 0.572544 10.2992 0.924175C9.94754 1.27581 9.75 1.75272 9.75 2.25V6.375C9.75 6.87228 9.94754 7.34919 10.2992 7.70083C10.6508 8.05246 11.1277 8.25 11.625 8.25H15.75C16.2473 8.25 16.7242 8.05246 17.0758 7.70083C17.4275 7.34919 17.625 6.87228 17.625 6.375V2.25C17.625 1.75272 17.4275 1.27581 17.0758 0.924175C16.7242 0.572544 16.2473 0.375 15.75 0.375ZM15.375 6H12V2.625H15.375V6ZM6.375 9.75H2.25C1.75272 9.75 1.27581 9.94754 0.924175 10.2992C0.572544 10.6508 0.375 11.1277 0.375 11.625V15.75C0.375 16.2473 0.572544 16.7242 0.924175 17.0758C1.27581 17.4275 1.75272 17.625 2.25 17.625H6.375C6.87228 17.625 7.34919 17.4275 7.70083 17.0758C8.05246 16.7242 8.25 16.2473 8.25 15.75V11.625C8.25 11.1277 8.05246 10.6508 7.70083 10.2992C7.34919 9.94754 6.87228 9.75 6.375 9.75ZM6 15.375H2.625V12H6V15.375ZM15.75 9.75H11.625C11.1277 9.75 10.6508 9.94754 10.2992 10.2992C9.94754 10.6508 9.75 11.1277 9.75 11.625V15.75C9.75 16.2473 9.94754 16.7242 10.2992 17.0758C10.6508 17.4275 11.1277 17.625 11.625 17.625H15.75C16.2473 17.625 16.7242 17.4275 17.0758 17.0758C17.4275 16.7242 17.625 16.2473 17.625 15.75V11.625C17.625 11.1277 17.4275 10.6508 17.0758 10.2992C16.7242 9.94754 16.2473 9.75 15.75 9.75ZM15.375 15.375H12V12H15.375V15.375Z" fill="#646D80"/>
</svg>
