<svg width="23" height="22" viewBox="0 0 23 22" fill="none" xmlns="http://www.w3.org/2000/svg">
<path d="M14.4941 0.989321C14.3048 0.896815 14.0935 0.859282 13.884 0.880994C13.6745 0.902706 13.4753 0.982791 13.3091 1.11213L6.86375 6.12495H2.75C2.25272 6.12495 1.77581 6.32249 1.42417 6.67412C1.07254 7.02575 0.875 7.50267 0.875 7.99995V13.9999C0.875 14.4972 1.07254 14.9741 1.42417 15.3258C1.77581 15.6774 2.25272 15.8749 2.75 15.8749H6.86375L13.3091 20.8878C13.4753 21.0171 13.6745 21.0972 13.884 21.1189C14.0935 21.1407 14.3049 21.1031 14.4941 21.0106C14.6833 20.9181 14.8428 20.7743 14.9543 20.5956C15.0659 20.417 15.125 20.2106 15.125 19.9999V1.99995C15.125 1.78932 15.0658 1.58292 14.9543 1.40426C14.8428 1.22559 14.6833 1.08182 14.4941 0.989321ZM12.875 17.7003L7.94094 13.8621C7.74342 13.7084 7.50028 13.625 7.25 13.6249H3.125V8.37495H7.25C7.50028 8.37494 7.74342 8.29148 7.94094 8.13776L12.875 4.30057V17.7003ZM18.875 8.74995V13.2499C18.875 13.5483 18.7565 13.8345 18.5455 14.0454C18.3345 14.2564 18.0484 14.3749 17.75 14.3749C17.4516 14.3749 17.1655 14.2564 16.9545 14.0454C16.7435 13.8345 16.625 13.5483 16.625 13.2499V8.74995C16.625 8.45158 16.7435 8.16543 16.9545 7.95445C17.1655 7.74347 17.4516 7.62495 17.75 7.62495C18.0484 7.62495 18.3345 7.74347 18.5455 7.95445C18.7565 8.16543 18.875 8.45158 18.875 8.74995ZM22.25 7.24995V14.7499C22.25 15.0483 22.1315 15.3345 21.9205 15.5454C21.7095 15.7564 21.4234 15.8749 21.125 15.8749C20.8266 15.8749 20.5405 15.7564 20.3295 15.5454C20.1185 15.3345 20 15.0483 20 14.7499V7.24995C20 6.95158 20.1185 6.66543 20.3295 6.45445C20.5405 6.24347 20.8266 6.12495 21.125 6.12495C21.4234 6.12495 21.7095 6.24347 21.9205 6.45445C22.1315 6.66543 22.25 6.95158 22.25 7.24995Z" fill="#646D80"/>
</svg>
