<svg width="32" height="32" viewBox="0 0 32 32" fill="none" xmlns="http://www.w3.org/2000/svg">
<path d="M3.55808 24.0173C4.14861 25.5315 5.43635 26.6442 6.99955 26.9938C9.94421 27.6578 12.9729 27.9899 16.0009 27.9899C19.0282 27.9899 22.0555 27.6579 24.9982 26.9945C26.5639 26.6442 27.8517 25.5315 28.4397 24.0238C29.0326 22.5263 29.3334 20.9482 29.3334 19.333C29.3334 18.0073 29.1189 16.7155 28.7185 15.4762C29.1133 14.8559 29.3334 14.1359 29.3334 13.3727C29.3334 8.93981 25.7266 5.33301 21.293 5.33301H10.7071C8.55408 5.33301 6.53328 6.16767 5.01635 7.68327C3.50141 9.19954 2.66675 11.2203 2.66675 13.3727C2.66675 14.1421 2.88888 14.8677 3.27981 15.4814C2.88048 16.7193 2.66675 18.0091 2.66675 19.333C2.66675 20.9482 2.96755 22.5263 3.55808 24.0173ZM25.9578 23.0485C25.6902 23.7334 25.1141 24.2359 24.4135 24.3922C18.9097 25.6338 13.0906 25.6343 7.58408 24.3915C6.88621 24.2359 6.30995 23.7333 6.03981 23.0419C5.57101 21.8583 5.33341 20.6103 5.33341 19.333C5.33341 18.6038 5.41088 17.8877 5.56395 17.1905C5.59861 17.2001 5.63715 17.1963 5.67208 17.205C5.98115 17.2811 6.29795 17.333 6.62635 17.333H10.7715C10.7721 17.3361 10.7733 17.3391 10.7737 17.3421C10.8458 17.7943 10.9538 18.2437 11.1002 18.6897C11.1905 18.9505 11.3086 19.1962 11.4515 19.4242C11.8805 20.1081 12.5331 20.6302 13.3319 20.9071C13.7669 21.0494 14.2079 21.1562 14.6526 21.2274C15.0719 21.2947 15.4946 21.3245 15.9179 21.3282C15.9434 21.3285 15.9686 21.3342 15.9941 21.3342C15.9939 21.3342 15.9942 21.3342 15.9941 21.3342C16.4374 21.3342 16.8814 21.2975 17.3235 21.2275C17.3318 21.2262 17.3401 21.2269 17.3483 21.2255C17.7985 21.153 18.2466 21.0445 18.6901 20.8991C19.733 20.5378 20.5383 19.7325 20.9069 18.6681C21.0494 18.2337 21.1557 17.7903 21.227 17.3417C21.2275 17.3386 21.2287 17.3357 21.2291 17.3327H25.3737C25.7042 17.3327 26.0225 17.2803 26.3325 17.2041C26.3659 17.1958 26.403 17.1994 26.4362 17.1902C26.5893 17.8877 26.6667 18.6038 26.6667 19.333C26.6667 20.6103 26.4291 21.8583 25.9578 23.0485ZM17.8165 13.6194C18.0827 13.7118 18.2878 13.9169 18.3731 14.1617C18.5678 14.7562 18.6667 15.3747 18.6667 15.9997C18.6667 16.6246 18.5678 17.2431 18.3803 17.8161C18.2879 18.0823 18.0829 18.2874 17.8386 18.3721C17.6379 18.4378 17.4335 18.4759 17.2299 18.5198C16.2115 18.7378 15.1662 18.7011 14.1837 18.3799C13.9174 18.2875 13.7123 18.0825 13.627 17.8377C13.4323 17.2431 13.3334 16.6247 13.3334 15.9997C13.3334 15.3746 13.4323 14.7562 13.6198 14.1833C13.7122 13.917 13.9173 13.7119 14.1621 13.6266C15.351 13.2373 16.6706 13.2445 17.8165 13.6194ZM6.90248 9.56927C7.91475 8.55701 9.26635 7.99967 10.7071 7.99967H21.2931C24.2559 7.99967 26.6667 10.4098 26.6667 13.3727C26.6667 13.7198 26.5359 14.0387 26.2709 14.2966C26.0391 14.5349 25.7201 14.6663 25.3738 14.6663H21.2286C21.2281 14.6633 21.2269 14.6602 21.2265 14.6573C21.1543 14.205 21.0463 13.7557 20.8999 13.3097C20.5386 12.2667 19.7333 11.4614 18.6689 11.0929C16.9423 10.5265 15.0797 10.5193 13.3102 11.1001C12.2673 11.4614 11.4619 12.2667 11.0934 13.3311C10.9509 13.7655 10.8446 14.2089 10.7733 14.6575C10.7726 14.6603 10.7714 14.6633 10.7709 14.6663H6.62635C6.27995 14.6663 5.96101 14.5349 5.70248 14.2698C5.46421 14.0387 5.33341 13.7197 5.33341 13.3727C5.33341 11.9319 5.89075 10.581 6.90248 9.56927Z" fill="black"/>
</svg>
